<svg width="150" height="25" viewBox="0 0 150 25" fill="none" xmlns="http://www.w3.org/2000/svg">
<path d="M0.312 19L6.096 1.48H12.456L18.456 19H14.376L9.528 4.192L10.776 4.696H7.68L8.976 4.192L4.248 19H0.312ZM4.704 14.656L5.904 11.392H12.768L13.992 14.656H4.704ZM20.5254 19V5.848H23.5734V11.488H23.5014C23.5014 9.632 23.8934 8.2 24.6774 7.192C25.4774 6.184 26.6294 5.68 28.1334 5.68H28.6374V8.992H27.6774C26.6214 8.992 25.8054 9.28 25.2294 9.856C24.6534 10.416 24.3654 11.232 24.3654 12.304V19H20.5254ZM36.9077 19.168C35.5797 19.168 34.5077 19.008 33.6917 18.688C32.8757 18.352 32.2757 17.8 31.8917 17.032C31.5237 16.248 31.3397 15.192 31.3397 13.864V2.296H34.9157V14.008C34.9157 14.632 35.0757 15.112 35.3957 15.448C35.7317 15.768 36.2037 15.928 36.8117 15.928H38.7557V19.168H36.9077ZM29.3477 8.656V5.848H38.7557V8.656H29.3477ZM52.689 19.456C51.105 19.456 49.769 19.208 48.681 18.712C47.593 18.2 46.769 17.512 46.209 16.648C45.649 15.768 45.369 14.76 45.369 13.624H49.185C49.185 14.072 49.305 14.488 49.545 14.872C49.801 15.256 50.185 15.568 50.697 15.808C51.209 16.032 51.873 16.144 52.689 16.144C53.425 16.144 54.041 16.048 54.537 15.856C55.033 15.664 55.409 15.4 55.665 15.064C55.921 14.712 56.049 14.312 56.049 13.864C56.049 13.304 55.809 12.864 55.329 12.544C54.849 12.208 54.073 11.992 53.001 11.896L51.681 11.776C49.937 11.632 48.545 11.088 47.505 10.144C46.465 9.2 45.945 7.952 45.945 6.4C45.945 5.28 46.209 4.312 46.737 3.496C47.281 2.68 48.033 2.056 48.993 1.624C49.953 1.176 51.089 0.951999 52.401 0.951999C53.777 0.951999 54.953 1.192 55.929 1.672C56.921 2.136 57.681 2.8 58.209 3.664C58.737 4.512 59.001 5.512 59.001 6.664H55.161C55.161 6.232 55.057 5.84 54.849 5.488C54.641 5.12 54.329 4.824 53.913 4.6C53.513 4.376 53.009 4.264 52.401 4.264C51.825 4.264 51.337 4.36 50.937 4.552C50.553 4.744 50.265 5.008 50.073 5.344C49.881 5.664 49.785 6.016 49.785 6.4C49.785 6.896 49.961 7.328 50.313 7.696C50.665 8.064 51.241 8.28 52.041 8.344L53.385 8.464C54.665 8.576 55.793 8.856 56.769 9.304C57.745 9.736 58.505 10.336 59.049 11.104C59.609 11.856 59.889 12.776 59.889 13.864C59.889 14.984 59.593 15.968 59.001 16.816C58.425 17.648 57.601 18.296 56.529 18.76C55.457 19.224 54.177 19.456 52.689 19.456ZM62.2408 24.208V20.944H64.9768C65.3928 20.944 65.7448 20.888 66.0328 20.776C66.3208 20.68 66.5528 20.512 66.7288 20.272C66.9048 20.032 67.0488 19.704 67.1608 19.288L70.4008 5.848H74.0488L70.3768 20.056C70.1208 21.08 69.7608 21.896 69.2968 22.504C68.8488 23.112 68.2408 23.544 67.4728 23.8C66.7208 24.072 65.7608 24.208 64.5928 24.208H62.2408ZM66.3688 18.712V15.712H69.1528V18.712H66.3688ZM64.7848 18.712L60.7528 5.848H64.6168L68.4328 18.712H64.7848ZM80.9237 19.408C79.0517 19.408 77.5877 19.024 76.5317 18.256C75.4757 17.488 74.9157 16.408 74.8517 15.016H78.2597C78.3237 15.432 78.5717 15.808 79.0037 16.144C79.4517 16.464 80.1157 16.624 80.9957 16.624C81.6677 16.624 82.2197 16.512 82.6517 16.288C83.0997 16.048 83.3237 15.712 83.3237 15.28C83.3237 14.896 83.1557 14.592 82.8197 14.368C82.4837 14.128 81.8837 13.96 81.0197 13.864L79.9877 13.768C78.4037 13.608 77.2117 13.168 76.4117 12.448C75.6277 11.728 75.2357 10.808 75.2357 9.688C75.2357 8.76 75.4677 7.984 75.9317 7.36C76.3957 6.736 77.0357 6.264 77.8517 5.944C78.6837 5.624 79.6277 5.464 80.6837 5.464C82.3797 5.464 83.7477 5.84 84.7877 6.592C85.8277 7.328 86.3717 8.4 86.4197 9.808H83.0117C82.9477 9.376 82.7237 9.016 82.3397 8.728C81.9557 8.424 81.3877 8.272 80.6357 8.272C80.0437 8.272 79.5717 8.384 79.2197 8.608C78.8677 8.832 78.6917 9.136 78.6917 9.52C78.6917 9.888 78.8437 10.168 79.1477 10.36C79.4517 10.552 79.9477 10.688 80.6357 10.768L81.6677 10.864C83.2837 11.04 84.5397 11.488 85.4357 12.208C86.3317 12.928 86.7797 13.896 86.7797 15.112C86.7797 15.992 86.5397 16.76 86.0597 17.416C85.5797 18.056 84.8997 18.552 84.0197 18.904C83.1397 19.24 82.1077 19.408 80.9237 19.408ZM95.2436 19.168C93.9156 19.168 92.8436 19.008 92.0276 18.688C91.2116 18.352 90.6116 17.8 90.2276 17.032C89.8596 16.248 89.6756 15.192 89.6756 13.864V2.296H93.2516V14.008C93.2516 14.632 93.4116 15.112 93.7316 15.448C94.0676 15.768 94.5396 15.928 95.1476 15.928H97.0916V19.168H95.2436ZM87.6836 8.656V5.848H97.0916V8.656H87.6836ZM105.651 19.456C104.531 19.456 103.539 19.264 102.675 18.88C101.827 18.496 101.115 17.984 100.539 17.344C99.979 16.688 99.547 15.96 99.243 15.16C98.955 14.344 98.811 13.512 98.811 12.664V12.184C98.811 11.304 98.955 10.464 99.243 9.664C99.547 8.848 99.979 8.12 100.539 7.48C101.099 6.84 101.795 6.336 102.627 5.968C103.475 5.584 104.435 5.392 105.507 5.392C106.915 5.392 108.099 5.712 109.059 6.352C110.035 6.976 110.779 7.8 111.291 8.824C111.803 9.832 112.059 10.936 112.059 12.136V13.432H100.419V11.248H109.731L108.483 12.256C108.483 11.472 108.371 10.8 108.147 10.24C107.923 9.68 107.587 9.256 107.139 8.968C106.707 8.664 106.163 8.512 105.507 8.512C104.835 8.512 104.267 8.664 103.803 8.968C103.339 9.272 102.987 9.72 102.747 10.312C102.507 10.888 102.387 11.6 102.387 12.448C102.387 13.232 102.499 13.92 102.723 14.512C102.947 15.088 103.299 15.536 103.779 15.856C104.259 16.176 104.883 16.336 105.651 16.336C106.355 16.336 106.931 16.2 107.379 15.928C107.827 15.656 108.131 15.32 108.291 14.92H111.819C111.627 15.8 111.251 16.584 110.691 17.272C110.131 17.96 109.427 18.496 108.579 18.88C107.731 19.264 106.755 19.456 105.651 19.456ZM114.604 19V5.848H117.652V11.512H117.436C117.436 10.168 117.604 9.048 117.94 8.152C118.276 7.256 118.78 6.584 119.452 6.136C120.124 5.672 120.948 5.44 121.924 5.44H122.092C123.084 5.44 123.908 5.672 124.564 6.136C125.236 6.584 125.74 7.256 126.076 8.152C126.428 9.048 126.604 10.168 126.604 11.512H125.668C125.668 10.168 125.836 9.048 126.172 8.152C126.524 7.256 127.036 6.584 127.708 6.136C128.38 5.672 129.204 5.44 130.18 5.44H130.348C131.34 5.44 132.172 5.672 132.844 6.136C133.532 6.584 134.052 7.256 134.404 8.152C134.756 9.048 134.932 10.168 134.932 11.512V19H131.092V11.296C131.092 10.576 130.9 9.992 130.516 9.544C130.148 9.096 129.62 8.872 128.932 8.872C128.244 8.872 127.7 9.104 127.3 9.568C126.9 10.016 126.7 10.616 126.7 11.368V19H122.836V11.296C122.836 10.576 122.644 9.992 122.26 9.544C121.892 9.096 121.372 8.872 120.7 8.872C119.996 8.872 119.444 9.104 119.044 9.568C118.644 10.016 118.444 10.616 118.444 11.368V19H114.604ZM143.197 19.408C141.325 19.408 139.861 19.024 138.805 18.256C137.749 17.488 137.189 16.408 137.125 15.016H140.533C140.597 15.432 140.845 15.808 141.277 16.144C141.725 16.464 142.389 16.624 143.269 16.624C143.941 16.624 144.493 16.512 144.925 16.288C145.373 16.048 145.597 15.712 145.597 15.28C145.597 14.896 145.429 14.592 145.093 14.368C144.757 14.128 144.157 13.96 143.293 13.864L142.261 13.768C140.677 13.608 139.485 13.168 138.685 12.448C137.901 11.728 137.509 10.808 137.509 9.688C137.509 8.76 137.741 7.984 138.205 7.36C138.669 6.736 139.309 6.264 140.125 5.944C140.957 5.624 141.901 5.464 142.957 5.464C144.653 5.464 146.021 5.84 147.061 6.592C148.101 7.328 148.645 8.4 148.693 9.808H145.285C145.221 9.376 144.997 9.016 144.613 8.728C144.229 8.424 143.661 8.272 142.909 8.272C142.317 8.272 141.845 8.384 141.493 8.608C141.141 8.832 140.965 9.136 140.965 9.52C140.965 9.888 141.117 10.168 141.421 10.36C141.725 10.552 142.221 10.688 142.909 10.768L143.941 10.864C145.557 11.04 146.813 11.488 147.709 12.208C148.605 12.928 149.053 13.896 149.053 15.112C149.053 15.992 148.813 16.76 148.333 17.416C147.853 18.056 147.173 18.552 146.293 18.904C145.413 19.24 144.381 19.408 143.197 19.408Z" fill="#F5E5FF"/>
</svg>
